<svg width="115" height="21" viewBox="0 0 115 21" fill="none" xmlns="http://www.w3.org/2000/svg">
<path d="M33.5 0L35.6329 7.25532H42.535L36.9511 11.7394L39.084 18.9947L33.5 14.5106L27.916 18.9947L30.0489 11.7394L24.465 7.25532H31.3671L33.5 0Z" fill="#FF0000"/>
<path d="M57.5 0L59.6329 7.25532H66.535L60.9511 11.7394L63.084 18.9947L57.5 14.5106L51.916 18.9947L54.0489 11.7394L48.465 7.25532H55.3671L57.5 0Z" fill="#FF0000"/>
<path d="M81.5 0L83.6329 7.25532H90.535L84.9511 11.7394L87.084 18.9947L81.5 14.5106L75.916 18.9947L78.0489 11.7394L72.465 7.25532H79.3671L81.5 0Z" fill="#C4C4C4"/>
<path d="M105.5 0L107.633 7.25532H114.535L108.951 11.7394L111.084 18.9947L105.5 14.5106L99.916 18.9947L102.049 11.7394L96.465 7.25532H103.367L105.5 0Z" fill="#C4C4C4"/>
<path d="M9.5 0L11.6329 7.25532H18.535L12.9511 11.7394L15.084 18.9947L9.5 14.5106L3.91604 18.9947L6.04892 11.7394L0.464963 7.25532H7.36712L9.5 0Z" fill="#FF0000"/>
</svg>
